<svg width="508" height="191" viewBox="0 0 508 191" fill="none" xmlns="http://www.w3.org/2000/svg">
<path d="M101.194 183.455C55.1642 187.915 29.7969 159.299 23.4921 145.673C21.7595 142.579 23.8785 133.632 29.4945 130.054C35.7263 126.083 44.4427 127.589 46.6494 130.203L57.3982 141.516C63.44 146.969 81.1817 156.793 103.813 152.463C126.445 148.134 137.995 127.607 141.696 116.649C142.575 113.428 148.607 105.059 159.659 107.242C170.711 109.425 171.971 119.555 171.219 124.347C166.425 143.103 144.205 179.288 101.194 183.455Z" fill="#02AEF7"/>
<path d="M34.4187 82.4283C27.8812 80.8797 22.3972 77.8782 17.9667 73.4238C13.5575 68.8799 10.488 63.4711 8.75844 57.1974C7.13961 50.8554 7.16814 44.147 8.84404 37.0722C10.5199 29.9973 13.6381 24.0208 18.1986 19.1425C22.8486 14.2855 28.3316 10.9026 34.6477 8.99393C41.0746 7.01688 47.7807 6.8557 54.7659 8.51039C61.7512 10.1651 67.6276 13.3068 72.395 17.9356C77.1837 22.4748 80.5218 27.9473 82.4093 34.3529C84.3864 40.7798 84.537 47.5306 82.8611 54.6055L77.6221 53.3644C75.9462 60.4393 72.9176 66.437 68.5362 71.3577C64.2657 76.21 59.1408 79.6778 53.1618 81.7609C47.2039 83.7545 40.9562 83.9769 34.4187 82.4283ZM39.9692 70.9748C44.5365 72.0567 48.8658 71.9473 52.9571 70.6466C57.0697 69.2562 60.6013 66.9244 63.5521 63.651C66.524 60.2881 68.5722 56.2334 69.6965 51.487C70.8421 46.6511 70.8304 42.1085 69.6617 37.8592C68.5141 33.5205 66.4038 29.8521 63.3307 26.8543C60.2789 23.7669 56.4693 21.6822 51.902 20.6003C47.4243 19.5396 43.0844 19.6938 38.8823 21.0629C34.791 22.3636 31.2146 24.6849 28.153 28.0266C25.2023 31.3 23.1541 35.3546 22.0086 40.1906C20.8843 44.937 20.8959 49.4796 22.0434 53.8184C23.3018 58.0888 25.4568 61.7677 28.5087 64.8552C31.6713 67.8742 35.4915 69.9141 39.9692 70.9748ZM67.2912 89.7896C65.321 89.3229 63.8127 88.3036 62.7664 86.7316C61.8308 85.0913 61.5964 83.286 62.0631 81.3158L66.9317 60.763L72.857 47.1284L82.8611 54.6055L75.765 84.5615C75.2983 86.5317 74.2342 88.0294 72.5727 89.0545C71.0219 90.0113 69.2614 90.2563 67.2912 89.7896Z" fill="#6052CC"/>
<path d="M33.1484 4.03213C40.5097 1.77252 48.149 1.61599 55.9607 3.46643C63.7804 5.31879 70.514 8.88374 76.0063 14.2162C81.4276 19.3695 85.2239 25.603 87.3637 32.8287C89.6341 40.209 89.7761 47.9028 87.9053 55.8004L80.8092 85.7563C80.0387 89.0089 78.1738 91.6899 75.2948 93.4663C72.4388 95.2283 69.2415 95.5786 66.0965 94.8336C62.9497 94.0882 60.2805 92.3524 58.4511 89.604L58.352 89.4553L58.2633 89.3001C57.6337 88.1961 57.1944 87.048 56.9341 85.8742C56.2552 86.1511 55.5665 86.4124 54.8672 86.656L54.8368 86.6666L54.8068 86.6766C47.8688 88.9982 40.6335 89.2275 33.2239 87.4723C25.8143 85.7171 19.4509 82.2665 14.2915 77.0793L14.2688 77.0568L14.2467 77.0338C9.21372 71.8471 5.7156 65.6641 3.76125 58.5753L3.74805 58.5274L3.73587 58.4796C1.8877 51.2392 1.95262 43.6757 3.79986 35.8774C5.6647 28.005 9.18126 21.1974 14.4117 15.6025L14.4326 15.5798L14.4541 15.5576C19.709 10.0687 25.961 6.20413 33.1484 4.03213ZM54.7659 8.51039C47.7807 6.8557 41.0746 7.01688 34.6477 8.99393C28.3316 10.9026 22.8486 14.2855 18.1986 19.1425L17.7753 19.6029C13.4447 24.3953 10.4676 30.2183 8.84404 37.0722L8.69178 37.7345C7.16801 44.566 7.1902 51.0536 8.75844 57.1974C10.488 63.4711 13.5575 68.8799 17.9667 73.4238C22.3972 77.8782 27.8812 80.8797 34.4187 82.4283C40.7518 83.9285 46.813 83.7664 52.6021 81.9424L53.1618 81.7609C56.8475 80.4768 60.2077 78.6654 63.2442 76.329L62.0631 81.3158C61.5964 83.286 61.8308 85.0913 62.7664 86.7316C63.8127 88.3036 65.321 89.3229 67.2912 89.7896C69.1998 90.2417 70.9117 90.0259 72.4267 89.1421L72.5727 89.0545C74.1822 88.0615 75.2313 86.625 75.7196 84.7451L75.765 84.5615L82.8611 54.6055C84.537 47.5306 84.3864 40.7798 82.4093 34.3529C80.5218 27.9473 77.1837 22.4748 72.395 17.9356C67.6276 13.3068 61.7512 10.1651 54.7659 8.51039ZM38.8823 21.0629C43.0844 19.6938 47.4243 19.5396 51.902 20.6003C56.4693 21.6822 60.2789 23.7669 63.3307 26.8543C66.4038 29.8521 68.5141 33.5205 69.6617 37.8592C70.8304 42.1085 70.8421 46.6511 69.6965 51.487C68.5722 56.2334 66.524 60.2881 63.5521 63.651C60.6013 66.9244 57.0697 69.2562 52.9571 70.6466C48.8658 71.9473 44.5365 72.0567 39.9692 70.9748C35.6314 69.9473 31.9105 68.001 28.8069 65.1355L28.5087 64.8552C25.4568 61.7677 23.3018 58.0888 22.0434 53.8184C20.9317 49.6152 20.8859 45.2208 21.9063 40.6351L22.0086 40.1906C23.1541 35.3546 25.2023 31.3 28.153 28.0266C31.2146 24.6849 34.791 22.3636 38.8823 21.0629ZM50.7073 25.6442C47.116 24.7935 43.7465 24.93 40.488 25.9916L40.4529 26.003C37.2822 27.011 34.4754 28.8059 31.9954 31.5059C29.7025 34.0526 28.0225 37.2914 27.0526 41.3857C26.1145 45.3463 26.1436 48.9949 27.0349 52.4166C28.0523 55.8342 29.7511 58.7203 32.1422 61.1564C34.5932 63.4783 37.5595 65.0769 41.164 65.9308C44.8918 66.8138 48.2488 66.6963 51.353 65.7161C54.5802 64.615 57.3383 62.7963 59.6872 60.1956C62.0357 57.5305 63.71 54.2712 64.6525 50.2921C65.6235 46.1933 65.5734 42.5417 64.6636 39.234L64.65 39.1847C63.7308 35.7092 62.0816 32.8776 59.7107 30.5647L59.677 30.532L59.6443 30.4984C57.3309 28.158 54.409 26.5211 50.7073 25.6442Z" fill="#6052CC"/>
<path d="M97.3791 114.006C95.4841 113.604 94.0278 112.619 93.0102 111.053C92.0604 109.591 91.7867 107.912 92.1892 106.017L104.702 47.1003C106.233 40.3138 109.126 34.5366 113.379 29.7686C117.633 25.0006 122.759 21.6333 128.758 19.6666C134.775 17.6138 141.143 17.3009 147.862 18.7278C154.666 20.173 160.401 23.0562 165.064 27.3775C169.746 31.6126 173.061 36.7727 175.009 42.8578C177.044 48.9612 177.339 55.4153 175.893 62.22C174.448 69.0248 171.685 74.8294 167.604 79.634C163.627 84.3707 158.802 87.8021 153.13 89.928C147.475 91.9679 141.504 92.3201 135.216 90.9847C130.134 89.9053 125.659 87.8747 121.792 84.8928C118.028 81.843 115.023 78.1891 112.777 73.9311L105.368 108.816C104.966 110.711 104.033 112.133 102.571 113.083C101.091 114.119 99.3602 114.427 97.3791 114.006ZM135.102 78.8075C139.495 79.7405 143.633 79.5392 147.518 78.2037C151.421 76.7821 154.747 74.4728 157.496 71.2758C160.35 68.0111 162.262 64.0961 163.231 59.5309C164.219 54.8795 164.064 50.5255 162.765 46.4687C161.57 42.3441 159.47 38.8823 156.464 36.0833C153.475 33.1982 149.785 31.2891 145.392 30.3561C141.085 29.4414 136.937 29.6858 132.948 31.0891C129.064 32.4246 125.738 34.7339 122.97 38.017C120.221 41.214 118.352 45.1381 117.364 49.7894C116.395 54.3546 116.507 58.6995 117.701 62.8241C118.914 66.8626 121.015 70.3244 124.003 73.2095C127.095 76.0268 130.795 77.8928 135.102 78.8075Z" fill="#2267E1"/>
<path d="M175.893 62.22C177.339 55.4153 177.044 48.9612 175.009 42.8578C173.061 36.7727 169.746 31.6126 165.064 27.3775C160.401 23.0562 154.666 20.173 147.862 18.7278C141.143 17.3009 134.775 17.6138 128.758 19.6666C122.759 21.6333 117.633 25.0006 113.379 29.7686C109.126 34.5366 106.233 40.3138 104.702 47.1003L92.1892 106.017L92.1215 106.37C91.8235 108.121 92.1198 109.682 93.0102 111.053C93.996 112.57 95.3936 113.542 97.2027 113.967L97.3791 114.006C99.3602 114.427 101.091 114.119 102.571 113.083C103.942 112.193 104.847 110.887 105.287 109.166L105.368 108.816L112.777 73.9311C115.023 78.1891 118.028 81.843 121.792 84.8928C125.538 87.7815 129.855 89.7777 134.742 90.8808L135.216 90.9847C141.307 92.2783 147.102 91.9883 152.598 90.1145L153.13 89.928C158.802 87.8021 163.627 84.3707 167.604 79.634C171.557 74.9795 174.274 69.3866 175.754 62.855L175.893 62.22ZM158.161 58.454C158.983 54.5802 158.821 51.1504 157.828 48.0495L157.806 47.9806L157.785 47.9105C156.839 44.6437 155.219 42.0081 152.931 39.8775L152.897 39.8454L152.863 39.8123C150.631 37.6568 147.838 36.1751 144.315 35.4269C140.899 34.7015 137.721 34.9052 134.669 35.9792L134.634 35.9915C131.677 37.0081 129.126 38.7578 126.933 41.3581L126.917 41.3779L126.9 41.3971C124.788 43.8537 123.265 46.956 122.435 50.8664C121.629 54.6584 121.743 58.1229 122.671 61.3488C123.627 64.5212 125.246 67.1881 127.556 69.4333C129.919 71.5669 132.753 73.0092 136.179 73.7368L135.102 78.8075C130.795 77.8928 127.095 76.0268 124.003 73.2095C121.015 70.3244 118.914 66.8626 117.701 62.8241C116.544 58.8285 116.403 54.626 117.276 50.2169L117.364 49.7894C118.321 45.2835 120.105 41.4601 122.715 38.3191L122.97 38.017C125.651 34.8366 128.856 32.5698 132.586 31.2171L132.948 31.0891C136.937 29.6858 141.085 29.4414 145.392 30.3561L145.802 30.4463C150.015 31.4093 153.569 33.2883 156.464 36.0833C159.47 38.8823 161.57 42.3441 162.765 46.4687C164.064 50.5255 164.219 54.8795 163.231 59.5309L163.138 59.9571C162.141 64.3402 160.261 68.1131 157.496 71.2758L157.237 71.573C154.538 74.6162 151.299 76.8265 147.518 78.2037C143.633 79.5392 139.495 79.7405 135.102 78.8075L136.179 73.7368C139.724 74.4898 142.887 74.3045 145.79 73.3152C148.825 72.2012 151.397 70.4171 153.566 67.8958L153.593 67.8643C155.821 65.3159 157.36 62.222 158.161 58.454ZM180.964 63.297C179.359 70.8534 176.248 77.4641 171.555 82.9896C167.02 88.3836 161.466 92.3396 154.949 94.7823L154.919 94.7935L154.889 94.8042C148.262 97.1947 141.304 97.577 134.139 96.0555C128.347 94.8253 123.148 92.4839 118.626 88.9979L118.577 88.9599L118.528 88.92C117.457 88.0523 116.439 87.1401 115.474 86.1848L110.439 109.893C109.789 112.953 108.16 115.616 105.439 117.401C102.657 119.304 99.4616 119.748 96.3022 119.077C93.1181 118.401 90.4601 116.643 88.6631 113.877C86.8778 111.129 86.4652 108.016 87.1185 104.94L99.6383 45.9912L99.6456 45.9591C101.353 38.3928 104.621 31.7998 109.511 26.3179C114.213 21.047 119.897 17.2399 126.501 14.9571L127.143 14.741C134.099 12.3801 141.402 12.0565 148.939 13.6571C156.569 15.2777 163.174 18.5592 168.588 23.5752C173.916 28.4094 177.707 34.3193 179.927 41.2182C182.277 48.268 182.585 55.6653 180.964 63.297Z" fill="#2267E1"/>
<path d="M242.17 28.707H259.858V76.7176H242.17V72.3006C238.547 76.1414 233.504 78.0619 227.04 78.0619C219.936 78.0619 213.969 75.6613 209.139 70.8603C204.38 65.9952 202 59.9459 202 52.7123C202 45.4787 204.38 39.4613 209.139 34.6603C213.969 29.7952 219.936 27.3627 227.04 27.3627C233.504 27.3627 238.547 29.2831 242.17 33.1239V28.707ZM222.884 60.2979C224.944 62.2184 227.643 63.1786 230.982 63.1786C234.321 63.1786 237.02 62.2184 239.08 60.2979C241.14 58.3775 242.17 55.849 242.17 52.7123C242.17 49.5756 241.14 47.047 239.08 45.1266C237.02 43.2062 234.321 42.2459 230.982 42.2459C227.643 42.2459 224.944 43.2062 222.884 45.1266C220.824 47.047 219.794 49.5756 219.794 52.7123C219.794 55.849 220.824 58.3775 222.884 60.2979Z" fill="black"/>
<path d="M322.748 76.7176H302.93L287.799 56.265V76.7176H270.112V9.5027H287.799V48.7754L301.544 28.707H322.002L304.102 52.7123L322.748 76.7176Z" fill="black"/>
<path d="M362.041 28.707H379.729V76.7176H362.041V72.3006C358.418 76.1414 353.375 78.0619 346.911 78.0619C339.807 78.0619 333.84 75.6613 329.01 70.8603C324.251 65.9952 321.871 59.9459 321.871 52.7123C321.871 45.4787 324.251 39.4613 329.01 34.6603C333.84 29.7952 339.807 27.3627 346.911 27.3627C353.375 27.3627 358.418 29.2831 362.041 33.1239V28.707ZM342.755 60.2979C344.815 62.2184 347.514 63.1786 350.853 63.1786C354.192 63.1786 356.891 62.2184 358.951 60.2979C361.011 58.3775 362.041 55.849 362.041 52.7123C362.041 49.5756 361.011 47.047 358.951 45.1266C356.891 43.2062 354.192 42.2459 350.853 42.2459C347.514 42.2459 344.815 43.2062 342.755 45.1266C340.695 47.047 339.665 49.5756 339.665 52.7123C339.665 55.849 340.695 58.3775 342.755 60.2979Z" fill="black"/>
<path d="M422.481 27.3627C428.235 27.3627 432.923 29.1551 436.546 32.7398C440.24 36.2606 442.086 41.3497 442.086 48.0072V76.7176H424.399V50.0237C424.399 47.5271 423.653 45.6387 422.161 44.3584C420.741 43.0781 418.823 42.438 416.407 42.438C413.637 42.438 411.471 43.2062 409.908 44.7425C408.416 46.2148 407.67 48.3593 407.67 51.1759V76.7176H389.983V28.707H407.67V33.508C410.867 29.4111 415.804 27.3627 422.481 27.3627Z" fill="black"/>
<path d="M489.728 28.707H507.203V74.7971C507.203 78.638 506.386 82.0307 504.752 84.9754C503.19 87.9841 501.059 90.3526 498.359 92.081C495.66 93.8734 492.676 95.1857 489.409 96.0178C486.212 96.914 482.803 97.3621 479.18 97.3621C473.284 97.3621 468.027 96.3699 463.41 94.3855C458.793 92.401 455.312 89.4884 452.968 85.6476L467.672 77.9659C470.229 81.6147 473.994 83.4391 478.967 83.4391C482.163 83.4391 484.756 82.7029 486.745 81.2306C488.734 79.7582 489.728 77.6138 489.728 74.7971V70.1881C486.106 74.157 481.133 76.1414 474.811 76.1414C467.495 76.1414 461.421 73.7729 456.591 69.0359C451.832 64.2988 449.452 58.5375 449.452 51.752C449.452 44.9665 451.832 39.2053 456.591 34.4682C461.421 29.7312 467.495 27.3627 474.811 27.3627C481.133 27.3627 486.106 29.3471 489.728 33.316V28.707ZM470.229 58.9536C472.361 60.8101 475.095 61.7383 478.434 61.7383C481.773 61.7383 484.472 60.8101 486.532 58.9536C488.663 57.0332 489.728 54.6327 489.728 51.752C489.728 48.8714 488.663 46.5029 486.532 44.6465C484.472 42.7261 481.773 41.7658 478.434 41.7658C475.095 41.7658 472.361 42.7261 470.229 44.6465C468.169 46.5029 467.139 48.8714 467.139 51.752C467.139 54.6327 468.169 57.0332 470.229 58.9536Z" fill="black"/>
<path d="M237.375 108.981C244.479 108.981 250.41 111.413 255.169 116.278C260 121.079 262.415 127.097 262.415 134.33C262.415 141.564 260 147.613 255.169 152.478C250.41 157.279 244.479 159.68 237.375 159.68C230.911 159.68 225.868 157.76 222.245 153.919V177.54H204.557V110.325H222.245V114.742C225.868 110.901 230.911 108.981 237.375 108.981ZM225.335 141.916C227.395 143.836 230.094 144.797 233.433 144.797C236.771 144.797 239.471 143.836 241.531 141.916C243.591 139.996 244.621 137.467 244.621 134.33C244.621 131.194 243.591 128.665 241.531 126.745C239.471 124.824 236.771 123.864 233.433 123.864C230.094 123.864 227.395 124.824 225.335 126.745C223.275 128.665 222.245 131.194 222.245 134.33C222.245 137.467 223.275 139.996 225.335 141.916Z" fill="black"/>
<path d="M307.724 110.325H325.412V158.336H307.724V153.919C304.102 157.76 299.058 159.68 292.594 159.68C285.491 159.68 279.524 157.279 274.693 152.478C269.934 147.613 267.554 141.564 267.554 134.33C267.554 127.097 269.934 121.079 274.693 116.278C279.524 111.413 285.491 108.981 292.594 108.981C299.058 108.981 304.102 110.901 307.724 114.742V110.325ZM288.439 141.916C290.499 143.836 293.198 144.797 296.537 144.797C299.875 144.797 302.574 143.836 304.634 141.916C306.694 139.996 307.724 137.467 307.724 134.33C307.724 131.194 306.694 128.665 304.634 126.745C302.574 124.824 299.875 123.864 296.537 123.864C293.198 123.864 290.499 124.824 288.439 126.745C286.379 128.665 285.349 131.194 285.349 134.33C285.349 137.467 286.379 139.996 288.439 141.916Z" fill="black"/>
<path d="M352.207 103.7C350.218 105.492 347.838 106.388 345.068 106.388C342.297 106.388 339.882 105.492 337.822 103.7C335.833 101.843 334.839 99.6666 334.839 97.1701C334.839 94.6735 335.833 92.5291 337.822 90.7367C339.882 88.9443 342.297 88.0481 345.068 88.0481C347.838 88.0481 350.218 88.9443 352.207 90.7367C354.267 92.5291 355.297 94.6735 355.297 97.1701C355.297 99.6666 354.267 101.843 352.207 103.7ZM336.224 158.336V110.325H353.911V158.336C353.911 165.889 351.851 171.331 347.731 174.659C343.611 177.988 337.183 179.428 328.446 178.98V164.193C331.145 164.321 333.098 163.905 334.306 162.945C335.584 162.048 336.224 160.512 336.224 158.336Z" fill="black"/>
<path d="M401.686 110.325H419.373V158.336H401.686V153.919C398.063 157.76 393.02 159.68 386.555 159.68C379.452 159.68 373.485 157.279 368.655 152.478C363.895 147.613 361.516 141.564 361.516 134.33C361.516 127.097 363.895 121.079 368.655 116.278C373.485 111.413 379.452 108.981 386.555 108.981C393.02 108.981 398.063 110.901 401.686 114.742V110.325ZM382.4 141.916C384.46 143.836 387.159 144.797 390.498 144.797C393.836 144.797 396.536 143.836 398.596 141.916C400.656 139.996 401.686 137.467 401.686 134.33C401.686 131.194 400.656 128.665 398.596 126.745C396.536 124.824 393.836 123.864 390.498 123.864C387.159 123.864 384.46 124.824 382.4 126.745C380.34 128.665 379.31 131.194 379.31 134.33C379.31 137.467 380.34 139.996 382.4 141.916Z" fill="black"/>
<path d="M482.264 158.336H462.445L447.315 137.883V158.336H429.627V91.1208H447.315V130.393L461.06 110.325H481.518L463.617 134.33L482.264 158.336Z" fill="black"/>
</svg>
